<mxfile host="app.diagrams.net" agent="Mozilla/5.0 (X11; Ubuntu; Linux x86_64; rv:131.0) Gecko/20100101 Firefox/131.0" version="24.8.4">
  <diagram name="Page-1" id="sXXu67hmAwj4wklGZ8lD">
    <mxGraphModel dx="1299" dy="711" grid="1" gridSize="10" guides="1" tooltips="1" connect="1" arrows="1" fold="1" page="1" pageScale="1" pageWidth="850" pageHeight="1100" math="0" shadow="0">
      <root>
        <mxCell id="0" />
        <mxCell id="1" parent="0" />
        <mxCell id="3BGXNCvIv7jbFCUcZG6t-31" value="" style="rounded=0;whiteSpace=wrap;html=1;" vertex="1" parent="1">
          <mxGeometry y="40" width="910" height="1080" as="geometry" />
        </mxCell>
        <mxCell id="3BGXNCvIv7jbFCUcZG6t-1" value="" style="shape=umlLifeline;perimeter=lifelinePerimeter;whiteSpace=wrap;html=1;container=1;dropTarget=0;collapsible=0;recursiveResize=0;outlineConnect=0;portConstraint=eastwest;newEdgeStyle={&quot;curved&quot;:0,&quot;rounded&quot;:0};participant=umlActor;size=50;fillColor=#dae8fc;strokeColor=#6c8ebf;" vertex="1" parent="1">
          <mxGeometry x="110" y="120" width="30" height="600" as="geometry" />
        </mxCell>
        <mxCell id="3BGXNCvIv7jbFCUcZG6t-25" value="" style="html=1;points=[[0,0,0,0,5],[0,1,0,0,-5],[1,0,0,0,5],[1,1,0,0,-5]];perimeter=orthogonalPerimeter;outlineConnect=0;targetShapes=umlLifeline;portConstraint=eastwest;newEdgeStyle={&quot;curved&quot;:0,&quot;rounded&quot;:0};" vertex="1" parent="3BGXNCvIv7jbFCUcZG6t-1">
          <mxGeometry x="10" y="90" width="10" height="100" as="geometry" />
        </mxCell>
        <mxCell id="3BGXNCvIv7jbFCUcZG6t-2" value="" style="shape=umlLifeline;perimeter=lifelinePerimeter;whiteSpace=wrap;html=1;container=1;dropTarget=0;collapsible=0;recursiveResize=0;outlineConnect=0;portConstraint=eastwest;newEdgeStyle={&quot;curved&quot;:0,&quot;rounded&quot;:0};participant=umlBoundary;size=40;fillColor=#dae8fc;strokeColor=#6c8ebf;" vertex="1" parent="1">
          <mxGeometry x="360" y="120" width="50" height="600" as="geometry" />
        </mxCell>
        <mxCell id="3BGXNCvIv7jbFCUcZG6t-30" value="" style="html=1;points=[[0,0,0,0,5],[0,1,0,0,-5],[1,0,0,0,5],[1,1,0,0,-5]];perimeter=orthogonalPerimeter;outlineConnect=0;targetShapes=umlLifeline;portConstraint=eastwest;newEdgeStyle={&quot;curved&quot;:0,&quot;rounded&quot;:0};" vertex="1" parent="3BGXNCvIv7jbFCUcZG6t-2">
          <mxGeometry x="20" y="90" width="10" height="100" as="geometry" />
        </mxCell>
        <mxCell id="3BGXNCvIv7jbFCUcZG6t-3" value="" style="shape=umlLifeline;perimeter=lifelinePerimeter;whiteSpace=wrap;html=1;container=1;dropTarget=0;collapsible=0;recursiveResize=0;outlineConnect=0;portConstraint=eastwest;newEdgeStyle={&quot;curved&quot;:0,&quot;rounded&quot;:0};participant=umlControl;fillColor=#dae8fc;strokeColor=#6c8ebf;" vertex="1" parent="1">
          <mxGeometry x="560" y="120" width="40" height="600" as="geometry" />
        </mxCell>
        <mxCell id="3BGXNCvIv7jbFCUcZG6t-4" value="" style="shape=umlLifeline;perimeter=lifelinePerimeter;whiteSpace=wrap;html=1;container=1;dropTarget=0;collapsible=0;recursiveResize=0;outlineConnect=0;portConstraint=eastwest;newEdgeStyle={&quot;curved&quot;:0,&quot;rounded&quot;:0};participant=umlEntity;fillColor=#dae8fc;strokeColor=#6c8ebf;" vertex="1" parent="1">
          <mxGeometry x="700" y="120" width="40" height="600" as="geometry" />
        </mxCell>
        <mxCell id="3BGXNCvIv7jbFCUcZG6t-5" value="&lt;font style=&quot;font-size: 16px;&quot;&gt;User&lt;br&gt;&lt;/font&gt;" style="text;html=1;align=center;verticalAlign=middle;resizable=0;points=[];autosize=1;strokeColor=none;fillColor=none;" vertex="1" parent="1">
          <mxGeometry x="95" y="90" width="60" height="30" as="geometry" />
        </mxCell>
        <mxCell id="3BGXNCvIv7jbFCUcZG6t-6" value="&lt;font style=&quot;font-size: 16px;&quot;&gt;FlexiRecruit System&lt;br&gt;&lt;/font&gt;" style="text;html=1;align=center;verticalAlign=middle;resizable=0;points=[];autosize=1;strokeColor=none;fillColor=none;" vertex="1" parent="1">
          <mxGeometry x="310" y="90" width="160" height="30" as="geometry" />
        </mxCell>
        <mxCell id="3BGXNCvIv7jbFCUcZG6t-7" value="&lt;font style=&quot;font-size: 16px;&quot;&gt;Validator&lt;br&gt;&lt;/font&gt;" style="text;html=1;align=center;verticalAlign=middle;resizable=0;points=[];autosize=1;strokeColor=none;fillColor=none;" vertex="1" parent="1">
          <mxGeometry x="535" y="90" width="90" height="30" as="geometry" />
        </mxCell>
        <mxCell id="3BGXNCvIv7jbFCUcZG6t-8" value="&lt;font style=&quot;font-size: 16px;&quot;&gt;User Database&lt;br&gt;&lt;/font&gt;" style="text;html=1;align=center;verticalAlign=middle;resizable=0;points=[];autosize=1;strokeColor=none;fillColor=none;" vertex="1" parent="1">
          <mxGeometry x="655" y="90" width="130" height="30" as="geometry" />
        </mxCell>
        <mxCell id="3BGXNCvIv7jbFCUcZG6t-9" value="&lt;font style=&quot;font-size: 14px;&quot;&gt;Registers ()&lt;br&gt;&lt;/font&gt;" style="html=1;verticalAlign=bottom;endArrow=block;curved=0;rounded=0;" edge="1" parent="1">
          <mxGeometry x="-0.2141" width="80" relative="1" as="geometry">
            <mxPoint x="130" y="220" as="sourcePoint" />
            <mxPoint x="380" y="220" as="targetPoint" />
            <mxPoint as="offset" />
          </mxGeometry>
        </mxCell>
        <mxCell id="3BGXNCvIv7jbFCUcZG6t-10" value="&lt;font style=&quot;font-size: 14px;&quot;&gt;Requests Registration Details&lt;br&gt;&lt;/font&gt;" style="html=1;verticalAlign=bottom;endArrow=block;curved=0;rounded=0;" edge="1" parent="1">
          <mxGeometry width="80" relative="1" as="geometry">
            <mxPoint x="380" y="260" as="sourcePoint" />
            <mxPoint x="130" y="260" as="targetPoint" />
          </mxGeometry>
        </mxCell>
        <mxCell id="3BGXNCvIv7jbFCUcZG6t-11" value="&lt;font style=&quot;font-size: 14px;&quot;&gt;Provides Registration Details&lt;br&gt;&lt;/font&gt;" style="html=1;verticalAlign=bottom;endArrow=block;curved=0;rounded=0;" edge="1" parent="1">
          <mxGeometry width="80" relative="1" as="geometry">
            <mxPoint x="130" y="300" as="sourcePoint" />
            <mxPoint x="380" y="300" as="targetPoint" />
          </mxGeometry>
        </mxCell>
        <mxCell id="3BGXNCvIv7jbFCUcZG6t-12" value="&lt;b style=&quot;font-size: 14px;&quot;&gt;alt&lt;br&gt;&lt;/b&gt;" style="shape=umlFrame;whiteSpace=wrap;html=1;pointerEvents=0;strokeWidth=2;fillColor=#bac8d3;strokeColor=#23445d;" vertex="1" parent="1">
          <mxGeometry x="80" y="320" width="720" height="320" as="geometry" />
        </mxCell>
        <mxCell id="3BGXNCvIv7jbFCUcZG6t-13" value="&lt;b&gt;&lt;font style=&quot;font-size: 14px;&quot;&gt;[ Valid Registration }&lt;/font&gt;&lt;/b&gt;" style="text;html=1;align=center;verticalAlign=middle;resizable=0;points=[];autosize=1;strokeColor=none;fillColor=none;" vertex="1" parent="1">
          <mxGeometry x="140" y="328" width="160" height="30" as="geometry" />
        </mxCell>
        <mxCell id="3BGXNCvIv7jbFCUcZG6t-14" value="&lt;font style=&quot;font-size: 14px;&quot;&gt;Validate Details&lt;br&gt;&lt;/font&gt;" style="html=1;verticalAlign=bottom;endArrow=block;curved=0;rounded=0;" edge="1" parent="1" target="3BGXNCvIv7jbFCUcZG6t-26">
          <mxGeometry width="80" relative="1" as="geometry">
            <mxPoint x="580" y="360" as="sourcePoint" />
            <mxPoint x="500" y="360" as="targetPoint" />
          </mxGeometry>
        </mxCell>
        <mxCell id="3BGXNCvIv7jbFCUcZG6t-15" value="&lt;font style=&quot;font-size: 14px;&quot;&gt;Save User Details&lt;br&gt;&lt;/font&gt;" style="html=1;verticalAlign=bottom;endArrow=block;curved=0;rounded=0;" edge="1" parent="1" target="3BGXNCvIv7jbFCUcZG6t-27">
          <mxGeometry x="-0.3124" width="80" relative="1" as="geometry">
            <mxPoint x="385" y="400" as="sourcePoint" />
            <mxPoint x="465" y="400" as="targetPoint" />
            <mxPoint as="offset" />
          </mxGeometry>
        </mxCell>
        <mxCell id="3BGXNCvIv7jbFCUcZG6t-16" value="&lt;font style=&quot;font-size: 14px;&quot;&gt;Confirm Registration&lt;br&gt;&lt;/font&gt;" style="html=1;verticalAlign=bottom;endArrow=open;dashed=1;endSize=8;curved=0;rounded=0;" edge="1" parent="1">
          <mxGeometry x="0.3124" relative="1" as="geometry">
            <mxPoint x="719.5000000000002" y="440" as="sourcePoint" />
            <mxPoint x="390" y="440" as="targetPoint" />
            <mxPoint as="offset" />
          </mxGeometry>
        </mxCell>
        <mxCell id="3BGXNCvIv7jbFCUcZG6t-17" value="&lt;font style=&quot;font-size: 14px;&quot;&gt;Display Success Message&lt;br&gt;&lt;/font&gt;" style="html=1;verticalAlign=bottom;endArrow=block;curved=0;rounded=0;" edge="1" parent="1" target="3BGXNCvIv7jbFCUcZG6t-28">
          <mxGeometry width="80" relative="1" as="geometry">
            <mxPoint x="385" y="480" as="sourcePoint" />
            <mxPoint x="190" y="480" as="targetPoint" />
          </mxGeometry>
        </mxCell>
        <mxCell id="3BGXNCvIv7jbFCUcZG6t-18" value="" style="endArrow=none;dashed=1;html=1;rounded=0;entryX=0.996;entryY=0.628;entryDx=0;entryDy=0;entryPerimeter=0;strokeWidth=2;fillColor=#bac8d3;strokeColor=#23445d;" edge="1" parent="1" target="3BGXNCvIv7jbFCUcZG6t-12">
          <mxGeometry width="50" height="50" relative="1" as="geometry">
            <mxPoint x="80" y="520" as="sourcePoint" />
            <mxPoint x="790" y="520" as="targetPoint" />
          </mxGeometry>
        </mxCell>
        <mxCell id="3BGXNCvIv7jbFCUcZG6t-19" value="&lt;b&gt;&lt;font style=&quot;font-size: 14px;&quot;&gt;[ Invalid Registration }&lt;/font&gt;&lt;/b&gt;" style="text;html=1;align=center;verticalAlign=middle;resizable=0;points=[];autosize=1;strokeColor=none;fillColor=none;" vertex="1" parent="1">
          <mxGeometry x="120" y="530" width="170" height="30" as="geometry" />
        </mxCell>
        <mxCell id="3BGXNCvIv7jbFCUcZG6t-20" value="&lt;font style=&quot;font-size: 14px;&quot;&gt;Error Message ( Invalid Details )&lt;br&gt;&lt;/font&gt;" style="html=1;verticalAlign=bottom;endArrow=block;curved=0;rounded=0;" edge="1" parent="1">
          <mxGeometry width="80" relative="1" as="geometry">
            <mxPoint x="384.5" y="600" as="sourcePoint" />
            <mxPoint x="130" y="600" as="targetPoint" />
          </mxGeometry>
        </mxCell>
        <mxCell id="3BGXNCvIv7jbFCUcZG6t-21" value="" style="shape=umlDestroy;whiteSpace=wrap;html=1;strokeWidth=3;targetShapes=umlLifeline;" vertex="1" parent="1">
          <mxGeometry x="110" y="720" width="30" height="30" as="geometry" />
        </mxCell>
        <mxCell id="3BGXNCvIv7jbFCUcZG6t-22" value="" style="shape=umlDestroy;whiteSpace=wrap;html=1;strokeWidth=3;targetShapes=umlLifeline;" vertex="1" parent="1">
          <mxGeometry x="370" y="720" width="30" height="30" as="geometry" />
        </mxCell>
        <mxCell id="3BGXNCvIv7jbFCUcZG6t-23" value="" style="shape=umlDestroy;whiteSpace=wrap;html=1;strokeWidth=3;targetShapes=umlLifeline;" vertex="1" parent="1">
          <mxGeometry x="565" y="720" width="30" height="30" as="geometry" />
        </mxCell>
        <mxCell id="3BGXNCvIv7jbFCUcZG6t-24" value="" style="shape=umlDestroy;whiteSpace=wrap;html=1;strokeWidth=3;targetShapes=umlLifeline;" vertex="1" parent="1">
          <mxGeometry x="705" y="720" width="30" height="30" as="geometry" />
        </mxCell>
        <mxCell id="3BGXNCvIv7jbFCUcZG6t-26" value="" style="html=1;points=[[0,0,0,0,5],[0,1,0,0,-5],[1,0,0,0,5],[1,1,0,0,-5]];perimeter=orthogonalPerimeter;outlineConnect=0;targetShapes=umlLifeline;portConstraint=eastwest;newEdgeStyle={&quot;curved&quot;:0,&quot;rounded&quot;:0};" vertex="1" parent="1">
          <mxGeometry x="380" y="340" width="10" height="160" as="geometry" />
        </mxCell>
        <mxCell id="3BGXNCvIv7jbFCUcZG6t-27" value="" style="html=1;points=[[0,0,0,0,5],[0,1,0,0,-5],[1,0,0,0,5],[1,1,0,0,-5]];perimeter=orthogonalPerimeter;outlineConnect=0;targetShapes=umlLifeline;portConstraint=eastwest;newEdgeStyle={&quot;curved&quot;:0,&quot;rounded&quot;:0};" vertex="1" parent="1">
          <mxGeometry x="715" y="360" width="10" height="110" as="geometry" />
        </mxCell>
        <mxCell id="3BGXNCvIv7jbFCUcZG6t-28" value="" style="html=1;points=[[0,0,0,0,5],[0,1,0,0,-5],[1,0,0,0,5],[1,1,0,0,-5]];perimeter=orthogonalPerimeter;outlineConnect=0;targetShapes=umlLifeline;portConstraint=eastwest;newEdgeStyle={&quot;curved&quot;:0,&quot;rounded&quot;:0};" vertex="1" parent="1">
          <mxGeometry x="120" y="460" width="10" height="50" as="geometry" />
        </mxCell>
        <mxCell id="3BGXNCvIv7jbFCUcZG6t-29" value="" style="html=1;points=[[0,0,0,0,5],[0,1,0,0,-5],[1,0,0,0,5],[1,1,0,0,-5]];perimeter=orthogonalPerimeter;outlineConnect=0;targetShapes=umlLifeline;portConstraint=eastwest;newEdgeStyle={&quot;curved&quot;:0,&quot;rounded&quot;:0};" vertex="1" parent="1">
          <mxGeometry x="120" y="570" width="10" height="50" as="geometry" />
        </mxCell>
      </root>
    </mxGraphModel>
  </diagram>
</mxfile>
